<svg width="1440" height="1723" viewBox="0 0 1440 1723" fill="none" xmlns="http://www.w3.org/2000/svg">
<g opacity="0.282458" filter="url(#filter0_f_101_122)">
<circle cx="1110" cy="296" r="192" fill="#40FFF6"/>
</g>
<g opacity="0.153178" filter="url(#filter1_f_101_122)">
<circle cx="1110" cy="567" r="192" fill="#FF9201"/>
</g>
<path d="M1128 38C1128 -5.07821 1162.92 -40 1206 -40C1249.08 -40 1284 -5.07821 1284 38V272H1228C1172.77 272 1128 227.228 1128 172V38Z" fill="#66E2DC"/>
<path d="M1284 272H1362C1405.08 272 1440 306.922 1440 350C1440 393.078 1405.08 428 1362 428C1318.92 428 1284 393.078 1284 350V272Z" fill="#191826"/>
<rect x="1362" y="38" width="78" height="78" rx="39" fill="#FFB964"/>
<rect x="1362" y="-40" width="78" height="78" rx="39" fill="#FA7453"/>
<rect x="1128" y="272" width="156" height="156" rx="78" fill="#FA7453"/>
<rect x="1284" y="-40" width="78" height="156" rx="39" fill="#191826"/>
<rect x="1285" y="117" width="154" height="154" rx="77" stroke="#191826" stroke-width="2"/>
<rect x="1285" y="156" width="76" height="76" rx="38" stroke="#191826" stroke-width="2"/>
<g opacity="0.15" filter="url(#filter2_f_101_122)">
<circle cx="141" r="192" fill="#FA7453"/>
</g>
<g opacity="0.15" filter="url(#filter3_f_101_122)">
<circle cx="1376" cy="1395" r="192" fill="#FA7453"/>
</g>
<defs>
<filter id="filter0_f_101_122" x="782.086" y="-31.9141" width="655.828" height="655.828" filterUnits="userSpaceOnUse" color-interpolation-filters="sRGB">
<feFlood flood-opacity="0" result="BackgroundImageFix"/>
<feBlend mode="normal" in="SourceGraphic" in2="BackgroundImageFix" result="shape"/>
<feGaussianBlur stdDeviation="67.957" result="effect1_foregroundBlur_101_122"/>
</filter>
<filter id="filter1_f_101_122" x="782.086" y="239.086" width="655.828" height="655.828" filterUnits="userSpaceOnUse" color-interpolation-filters="sRGB">
<feFlood flood-opacity="0" result="BackgroundImageFix"/>
<feBlend mode="normal" in="SourceGraphic" in2="BackgroundImageFix" result="shape"/>
<feGaussianBlur stdDeviation="67.957" result="effect1_foregroundBlur_101_122"/>
</filter>
<filter id="filter2_f_101_122" x="-186.914" y="-327.914" width="655.828" height="655.828" filterUnits="userSpaceOnUse" color-interpolation-filters="sRGB">
<feFlood flood-opacity="0" result="BackgroundImageFix"/>
<feBlend mode="normal" in="SourceGraphic" in2="BackgroundImageFix" result="shape"/>
<feGaussianBlur stdDeviation="67.957" result="effect1_foregroundBlur_101_122"/>
</filter>
<filter id="filter3_f_101_122" x="1048.09" y="1067.09" width="655.828" height="655.828" filterUnits="userSpaceOnUse" color-interpolation-filters="sRGB">
<feFlood flood-opacity="0" result="BackgroundImageFix"/>
<feBlend mode="normal" in="SourceGraphic" in2="BackgroundImageFix" result="shape"/>
<feGaussianBlur stdDeviation="67.957" result="effect1_foregroundBlur_101_122"/>
</filter>
</defs>
</svg>
